<?xml version="1.0" encoding="utf-8"?>
<!-- Generator: Adobe Illustrator 23.1.0, SVG Export Plug-In . SVG Version: 6.00 Build 0)  -->
<svg version="1.1" xmlns="http://www.w3.org/2000/svg" xmlns:xlink="http://www.w3.org/1999/xlink" x="0px" y="0px"
	 viewBox="0 0 291.13 85.36" style="enable-background:new 0 0 291.13 85.36;" xml:space="preserve">
<style type="text/css">
	.st0{display:none;}
	.st1{display:inline;fill:#2C292A;}
	.st2{fill:#999999;}
	.st3{fill:#936A68;}
	.st4{opacity:0.3;fill:#E2BD74;}
	.st5{fill:#BA9972;}
	.st6{fill:#8E8E8E;}
	.st7{fill:#D3CCBA;}
	.st8{fill:#C5B392;}
	.st9{clip-path:url(#SVGID_2_);}
	.st10{fill:#CF906A;}
	.st11{opacity:0.85;fill:#E04D2B;}
	.st12{opacity:0.93;fill:#3F322C;}
	.st13{opacity:0.71;fill:#D8CAC5;}
	.st14{opacity:0.52;fill:#3F322C;}
	.st15{opacity:0.85;fill:#D8CAC5;}
	.st16{fill:#1A1815;}
</style>
<g id="Calque_2" class="st0">
	<rect x="-28.14" y="-25.68" class="st1" width="595.28" height="841.89"/>
</g>
<g id="Calque_1">
	<path class="st2" d="M87.72,1.87c0.41,0,0.73,0.23,0.73,0.52v13.08c0,4.36-3.61,6.83-8.81,6.83c-4.34,0-7.8-1.69-8.85-4.82
		c-0.12-0.34,0.2-0.69,0.73-0.75l0.53-0.09c0.37-0.03,0.73,0.14,0.81,0.4c0.77,2.47,3.41,3.73,6.78,3.73c4.02,0,6.62-1.78,6.62-5.31
		V2.39c0-0.29,0.33-0.52,0.73-0.52H87.72z"/>
	<path class="st2" d="M156.95,21.46l-2.72-5.16h-12.91l-2.72,5.16c-0.12,0.29-0.53,0.49-1.01,0.49h-0.77
		c-0.37,0-0.65-0.26-0.49-0.52l10.03-19.08c0.16-0.29,0.57-0.49,1.01-0.49h0.81c0.45,0,0.85,0.2,1.01,0.49l10.07,19.08
		c0.12,0.26-0.12,0.52-0.53,0.52h-0.77C157.52,21.95,157.12,21.75,156.95,21.46z M153.46,14.78l-5.68-10.73l-5.64,10.73H153.46z"/>
	<path class="st2" d="M223.47,1.87h0.89c0.41,0,0.69,0.23,0.69,0.52v19.05c0,0.29-0.28,0.52-0.69,0.52h-0.73
		c-0.41,0-0.73-0.23-0.73-0.52V4.74l-11.33,11.88c-0.12,0.14-0.32,0.23-0.57,0.23h-0.24c-0.24,0-0.49-0.09-0.61-0.23L198.83,4.74
		v16.69c0,0.29-0.33,0.52-0.73,0.52h-0.69c-0.41,0-0.73-0.23-0.73-0.52V2.39c0-0.29,0.33-0.52,0.73-0.52h0.85
		c0.37,0,0.69,0.11,0.89,0.34l11.73,12.22l11.69-12.22C222.78,1.98,223.11,1.87,223.47,1.87z"/>
	<g>
		<path class="st2" d="M108.76,36h0.69v4.02v2.63v1.54h-0.69v-0.24c-0.25,0.16-0.52,0.24-0.81,0.24h-0.28
			c-0.53,0-0.95-0.22-1.25-0.67c-0.17-0.27-0.26-0.56-0.27-0.87v-2.58c0-0.54,0.22-0.97,0.67-1.27c0.26-0.17,0.54-0.25,0.84-0.25
			h0.28c0.29,0,0.56,0.08,0.81,0.24V36z M107.67,39.27c-0.35,0-0.59,0.15-0.74,0.46c-0.05,0.11-0.07,0.22-0.07,0.34v2.58
			c0,0.35,0.15,0.59,0.46,0.74c0.11,0.05,0.23,0.07,0.35,0.07h0.28c0.34,0,0.59-0.15,0.73-0.46c0.05-0.11,0.07-0.23,0.08-0.35v-2.58
			c0-0.34-0.15-0.58-0.46-0.73c-0.11-0.05-0.23-0.07-0.35-0.07H107.67z"/>
		<path class="st2" d="M113.62,38.52h0.28c0.53,0,0.95,0.22,1.25,0.67c0.17,0.27,0.25,0.56,0.25,0.87v0.74v0.55v0.18h-2.59v1.12
			c0,0.35,0.15,0.59,0.46,0.73c0.11,0.05,0.23,0.07,0.35,0.08h0.28c0.35,0,0.59-0.15,0.73-0.46c0.05-0.11,0.07-0.23,0.08-0.35v-0.36
			h0.69v0.36c0,0.55-0.22,0.98-0.67,1.27c-0.25,0.18-0.53,0.27-0.83,0.27h-0.28c-0.53,0-0.95-0.23-1.25-0.69
			c-0.17-0.26-0.26-0.55-0.27-0.85v-2.59c0-0.55,0.22-0.98,0.67-1.29C113.04,38.6,113.32,38.52,113.62,38.52z M113.62,39.24
			c-0.34,0-0.59,0.15-0.74,0.46c-0.05,0.11-0.07,0.23-0.07,0.35v0.74h1.9v-0.74c0-0.35-0.15-0.59-0.46-0.73
			c-0.11-0.06-0.23-0.08-0.35-0.08H113.62z"/>
		<path class="st2" d="M181.77,36h0.69v8.19h-0.69V36z"/>
		<path class="st2" d="M186.63,38.52h0.28c0.53,0,0.95,0.22,1.25,0.67c0.17,0.27,0.25,0.56,0.25,0.87v1.86v0.73v1.18v0.36h-0.69
			v-0.24c-0.25,0.16-0.52,0.24-0.81,0.24h-0.28c-0.53,0-0.95-0.23-1.25-0.69c-0.17-0.27-0.26-0.57-0.27-0.9v-0.74
			c0-0.54,0.22-0.97,0.67-1.27c0.26-0.17,0.54-0.25,0.84-0.25h0.28c0.29,0,0.56,0.08,0.81,0.24v-0.52c0-0.35-0.15-0.59-0.46-0.73
			c-0.11-0.06-0.23-0.08-0.35-0.08h-0.28c-0.35,0-0.59,0.15-0.74,0.46c-0.05,0.11-0.07,0.23-0.07,0.35v0.36h-0.7v-0.36
			c0-0.55,0.22-0.98,0.67-1.29C186.05,38.6,186.33,38.52,186.63,38.52z M186.63,41.06c-0.35,0-0.59,0.15-0.74,0.46
			c-0.05,0.11-0.07,0.22-0.07,0.34v0.74c0,0.39,0.16,0.65,0.49,0.78c0.1,0.05,0.21,0.07,0.32,0.07h0.28c0.34,0,0.59-0.15,0.73-0.46
			c0.05-0.11,0.08-0.23,0.08-0.35v-0.73c0-0.4-0.17-0.67-0.5-0.8c-0.1-0.04-0.21-0.06-0.31-0.06H186.63z"/>
	</g>
	<path class="st3" d="M79.3,54.57c0.1,0.05,0.21,0.08,0.34,0.08c0.05,0,0.11-0.01,0.17-0.02c0.06-0.01,0.13-0.03,0.21-0.06
		c0.08-0.02,0.14-0.06,0.21-0.09c0.06-0.04,0.12-0.08,0.17-0.13c0.02,0,0.05,0,0.08,0c0.02,0,0.05,0,0.08,0c0.02,0,0.05,0,0.08,0
		c0.02,0,0.05,0,0.08,0c0.13,0,0.25,0,0.36,0s0.22,0,0.32,0c0.2,0,0.4,0.03,0.59,0.09c0.19,0.06,0.35,0.21,0.47,0.44
		c0,0.08,0.01,0.16,0.02,0.25c0.01,0.09,0.02,0.18,0.02,0.28c0,0.03,0,0.05,0,0.08c0,0.03,0,0.05,0,0.08
		c0.02,0.23,0.04,0.46,0.06,0.68c0.01,0.23,0.01,0.46-0.02,0.68c0,0.33-0.03,0.65-0.08,0.97c-0.05,0.32-0.14,0.63-0.26,0.93
		c0.15,0.28,0.27,0.59,0.36,0.93c0.09,0.34,0.14,0.69,0.17,1.04c0,0.08,0,0.15,0,0.21c0,0.06,0,0.13,0,0.21
		c0,0.28-0.03,0.56-0.08,0.84c-0.05,0.28-0.14,0.53-0.26,0.76c0.15,0.63,0.26,1.28,0.32,1.95c0.06,0.67,0.09,1.34,0.09,2.02
		c0,0.25-0.01,0.5-0.02,0.76c-0.01,0.25-0.02,0.5-0.02,0.76c-0.03,0.5-0.07,1.01-0.13,1.51c-0.06,0.5-0.13,1.01-0.21,1.51
		c0.18,0.18,0.28,0.38,0.32,0.6c0.04,0.23,0.06,0.47,0.06,0.72c0,0.08,0,0.15,0,0.23s0,0.15,0,0.23c-0.03,0.08-0.04,0.15-0.04,0.21
		c0,0.06,0,0.13,0,0.21c0.02,0.33,0.1,0.62,0.23,0.89c0.13,0.26,0.43,0.45,0.91,0.55c0.18,0.03,0.35,0.04,0.51,0.04s0.32,0,0.47,0
		c0.13,0,0.24,0,0.34,0s0.21-0.01,0.34-0.04c0.1,0,0.21,0,0.32,0s0.22,0,0.32,0c0.1,0,0.21,0,0.32,0s0.22,0,0.32,0
		c0.2,0.03,0.41,0.05,0.62,0.08c0.21,0.03,0.43,0.08,0.66,0.15c0.2-0.1,0.43-0.17,0.68-0.21c0.25-0.04,0.5-0.06,0.76-0.06
		c0.2,0,0.4,0.01,0.59,0.02c0.19,0.01,0.37,0.04,0.55,0.09c0.28,0.28,0.45,0.57,0.53,0.89c0.08,0.32,0.11,0.64,0.11,0.96
		c0,0.2-0.01,0.4-0.04,0.6c-0.03,0.2-0.04,0.4-0.04,0.6c-0.03,0.2-0.05,0.4-0.08,0.6s-0.04,0.4-0.04,0.6c0,0.18,0.01,0.35,0.04,0.51
		c0.03,0.16,0.06,0.33,0.11,0.51c0,0.08,0.01,0.15,0.02,0.21c0.01,0.06,0.03,0.13,0.06,0.21c0.05,0.28,0.09,0.57,0.13,0.87
		c0.04,0.3,0.06,0.6,0.06,0.91c0,0.23-0.01,0.45-0.04,0.66c-0.03,0.21-0.08,0.42-0.15,0.62c-0.1,0.18-0.24,0.29-0.42,0.34
		c-0.18,0.05-0.37,0.08-0.57,0.08c-0.08,0-0.14,0-0.21,0c-0.06,0-0.12-0.01-0.17-0.04c-0.08,0-0.14,0-0.21,0c-0.06,0-0.12,0-0.17,0
		c-0.03-0.08-0.06-0.14-0.11-0.19c-0.05-0.05-0.09-0.1-0.11-0.15c-0.05-0.02-0.09-0.04-0.13-0.06c-0.04-0.01-0.08-0.02-0.13-0.02
		c-0.1,0-0.2,0.03-0.3,0.09s-0.2,0.13-0.3,0.21c-0.1,0.1-0.21,0.18-0.32,0.25s-0.22,0.09-0.32,0.09c-0.2-0.1-0.41-0.17-0.62-0.21
		c-0.21-0.04-0.42-0.06-0.62-0.06c-0.18,0-0.36,0.01-0.55,0.04c-0.19,0.03-0.38,0.05-0.59,0.08c-0.18,0.03-0.36,0.05-0.55,0.08
		c-0.19,0.03-0.37,0.04-0.55,0.04c-0.2,0-0.4-0.02-0.61-0.08c-0.2-0.05-0.4-0.13-0.6-0.23c-0.1,0.05-0.2,0.09-0.3,0.13
		c-0.1,0.04-0.19,0.07-0.26,0.09c-0.1,0-0.2,0.01-0.3,0.02c-0.1,0.01-0.2,0.02-0.3,0.02c-0.08,0-0.16,0-0.25,0
		c-0.09,0-0.17-0.01-0.25-0.04c-0.05,0-0.09,0-0.13,0c-0.04,0-0.08-0.01-0.13-0.04c-0.13,0-0.25-0.01-0.36-0.02
		s-0.23-0.02-0.36-0.02c-0.1,0-0.2,0.01-0.3,0.02c-0.1,0.01-0.2,0.03-0.3,0.06c-0.05,0-0.1,0.01-0.15,0.04
		c-0.05,0.03-0.1,0.05-0.15,0.08c-0.13-0.02-0.26-0.04-0.4-0.06c-0.14-0.01-0.27-0.02-0.4-0.02c-0.18,0-0.36,0.01-0.55,0.02
		c-0.19,0.01-0.38,0.03-0.59,0.06c-0.05,0-0.11,0.01-0.17,0.02s-0.13,0.02-0.21,0.02c-0.13,0-0.25,0.01-0.38,0.02
		c-0.13,0.01-0.25,0.02-0.38,0.02c-0.33,0-0.64-0.03-0.93-0.09c-0.29-0.06-0.57-0.18-0.85-0.36c-0.25,0.15-0.52,0.26-0.81,0.34
		c-0.29,0.08-0.59,0.11-0.89,0.11c-0.15,0-0.3-0.01-0.45-0.04c-0.15-0.02-0.29-0.05-0.42-0.08c-0.05-0.02-0.1-0.05-0.15-0.08
		c-0.05-0.02-0.1-0.05-0.15-0.08c-0.2-0.1-0.38-0.21-0.55-0.32s-0.26-0.27-0.28-0.47c0-0.81-0.01-1.6-0.04-2.38
		c-0.03-0.78-0.05-1.54-0.08-2.27c-0.03-0.45-0.04-0.9-0.06-1.32c-0.01-0.43-0.03-0.86-0.06-1.29c0-0.45-0.01-0.91-0.02-1.36
		s-0.02-0.91-0.02-1.36c0-0.35,0-0.7,0-1.04c0-0.34,0.01-0.68,0.04-1c-0.03-0.05-0.04-0.1-0.04-0.15c0-0.05,0-0.09,0-0.11
		c0-0.13,0.02-0.25,0.08-0.38c0.05-0.13,0.1-0.24,0.15-0.34c0.05-0.13,0.1-0.24,0.15-0.34c0.05-0.1,0.08-0.2,0.08-0.3
		c0-0.05-0.01-0.1-0.02-0.15s-0.03-0.1-0.06-0.15c-0.05-0.05-0.1-0.1-0.15-0.15c-0.05-0.05-0.11-0.1-0.19-0.15
		c0-0.33,0.01-0.66,0.02-1c0.01-0.34,0.02-0.69,0.02-1.04s0.01-0.71,0.02-1.08c0.01-0.37,0.02-0.73,0.02-1.08c0-0.1,0-0.21,0-0.32
		s0-0.22,0-0.32c0-0.76,0.01-1.49,0.02-2.21c0.01-0.72,0.04-1.41,0.09-2.06c-0.1-0.28-0.18-0.56-0.23-0.83
		c-0.05-0.28-0.08-0.57-0.08-0.87c0-0.25,0.01-0.5,0.04-0.76c0.02-0.25,0.05-0.5,0.08-0.76c0-0.23,0.01-0.46,0.04-0.7
		s0.04-0.47,0.04-0.7c0-0.05,0-0.08,0-0.09s0-0.03,0-0.06c0.28-0.38,0.65-0.62,1.12-0.72c0.47-0.1,0.94-0.15,1.42-0.15
		c0.1,0,0.2,0,0.3,0c0.1,0,0.2,0,0.3,0c0.1,0.03,0.2,0.04,0.3,0.04s0.2,0,0.3,0c0.15,0.1,0.3,0.19,0.45,0.26
		c0.15,0.08,0.32,0.1,0.49,0.08c0.05,0,0.09,0,0.11,0c0.02,0,0.06,0,0.11,0c0.02,0,0.06-0.01,0.09-0.02
		c0.04-0.01,0.07-0.03,0.09-0.06c0.25-0.2,0.52-0.33,0.81-0.4c0.29-0.06,0.6-0.09,0.93-0.09c0.2,0,0.41,0.01,0.62,0.02
		c0.21,0.01,0.41,0.04,0.59,0.09C79.1,54.43,79.2,54.52,79.3,54.57z"/>
	<path class="st3" d="M112.13,54.47c0.1-0.01,0.2-0.02,0.3-0.02c0.08-0.02,0.16-0.04,0.26-0.04s0.2,0,0.3,0
		c0.66,0,1.29,0.11,1.91,0.34c0.62,0.23,1.18,0.53,1.68,0.91c0.05,0,0.1,0.01,0.15,0.02c0.05,0.01,0.1,0.02,0.15,0.02
		c0.05,0.03,0.11,0.04,0.17,0.04c0.06,0,0.13,0.01,0.21,0.04c0.45,0.08,0.9,0.2,1.34,0.38c0.44,0.18,0.76,0.53,0.96,1.06
		c0.96,0.15,1.8,0.59,2.53,1.31c0.73,0.72,1.27,1.52,1.63,2.4c0.66,0.53,1.23,1.19,1.72,1.97c0.49,0.78,0.72,1.62,0.7,2.5
		c0,0.08,0,0.15,0,0.21c0,0.06,0,0.13,0,0.21s-0.01,0.15-0.02,0.21c-0.01,0.06-0.03,0.13-0.06,0.21c0.3,0.56,0.52,1.14,0.64,1.74
		c0.13,0.61,0.19,1.24,0.19,1.89c0,0.25-0.01,0.5-0.02,0.76c-0.01,0.25-0.03,0.49-0.06,0.72c-0.03,0.15-0.04,0.3-0.06,0.45
		c-0.01,0.15-0.03,0.3-0.06,0.45c-0.03,0.1-0.04,0.2-0.06,0.3c-0.01,0.1-0.02,0.2-0.02,0.3c-0.43,0.25-0.69,0.58-0.79,0.98
		c-0.1,0.4-0.16,0.82-0.19,1.25c-0.03,0.23-0.05,0.45-0.08,0.66c-0.03,0.22-0.08,0.42-0.15,0.62c-0.18,0.18-0.37,0.39-0.59,0.63
		c-0.21,0.24-0.43,0.47-0.66,0.7c-0.3,0.33-0.62,0.64-0.96,0.93c-0.34,0.29-0.69,0.54-1.04,0.74c-0.43,0.83-1.05,1.55-1.85,2.14
		c-0.81,0.59-1.65,1.05-2.53,1.38c-0.05,0-0.11,0.01-0.17,0.04c-0.06,0.03-0.13,0.05-0.21,0.08c-0.05-0.02-0.11-0.04-0.17-0.04
		c-0.06,0-0.12,0-0.17,0c-0.23,0-0.44,0.06-0.64,0.17c-0.2,0.11-0.4,0.23-0.6,0.36c-0.03,0-0.04,0.01-0.06,0.04
		c-0.01,0.03-0.03,0.04-0.06,0.04c-0.15,0.1-0.29,0.19-0.42,0.26s-0.26,0.13-0.42,0.15c-0.2,0.03-0.4,0.05-0.6,0.08
		c-0.2,0.03-0.4,0.06-0.6,0.11c-0.38,0.05-0.75,0.09-1.12,0.13c-0.37,0.04-0.74,0.08-1.12,0.13c-0.2,0-0.4,0.01-0.59,0.02
		c-0.19,0.01-0.38,0.02-0.59,0.02c-0.18,0-0.35-0.01-0.53-0.02c-0.18-0.01-0.34-0.03-0.49-0.06c-0.18,0-0.35-0.02-0.53-0.06
		c-0.18-0.04-0.35-0.07-0.53-0.09c-0.23-0.18-0.47-0.28-0.72-0.32c-0.25-0.04-0.52-0.07-0.79-0.09c-0.15,0-0.3-0.01-0.45-0.02
		c-0.15-0.01-0.3-0.04-0.45-0.09c-0.2-0.05-0.4-0.1-0.59-0.15s-0.38-0.1-0.59-0.15c-0.03-0.02-0.06-0.04-0.09-0.04
		c-0.04,0-0.07,0-0.09,0c-0.66-0.18-1.29-0.38-1.89-0.62s-1.08-0.67-1.44-1.31c-1.34-0.28-2.35-0.91-3.04-1.89s-1.29-2.06-1.79-3.22
		c-0.05-0.1-0.1-0.21-0.15-0.32c-0.05-0.11-0.1-0.22-0.15-0.32c-0.18-0.38-0.35-0.74-0.51-1.1c-0.17-0.35-0.35-0.69-0.55-1.02
		c-0.23-0.43-0.38-0.85-0.45-1.27c-0.08-0.42-0.11-0.84-0.11-1.27c0-0.35,0.02-0.71,0.06-1.06c0.04-0.35,0.08-0.72,0.13-1.1
		c0.03-0.35,0.06-0.71,0.09-1.06c0.04-0.35,0.06-0.71,0.06-1.06c0-0.08,0-0.16,0-0.25c0-0.09-0.01-0.18-0.04-0.28
		c0-0.1-0.01-0.19-0.02-0.28c-0.01-0.09-0.02-0.17-0.02-0.25c0.13-0.23,0.24-0.45,0.34-0.68c0.1-0.23,0.19-0.47,0.26-0.72
		c0.02-0.02,0.04-0.05,0.04-0.08c0-0.02,0.01-0.05,0.04-0.08c0.18-0.48,0.38-0.93,0.61-1.36c0.23-0.43,0.55-0.79,0.98-1.1
		c0.15-0.58,0.4-1.07,0.76-1.48c0.35-0.4,0.74-0.79,1.17-1.17c0.13-0.13,0.26-0.24,0.4-0.34c0.14-0.1,0.27-0.21,0.4-0.34
		c0.4-0.02,0.76-0.17,1.06-0.44c0.3-0.26,0.58-0.56,0.83-0.89c0.08-0.1,0.15-0.19,0.23-0.28c0.08-0.09,0.15-0.18,0.23-0.28
		c0.33-0.33,0.7-0.53,1.12-0.61c0.42-0.08,0.84-0.13,1.27-0.15c0.48-0.05,0.94-0.13,1.38-0.23c0.44-0.1,0.83-0.35,1.15-0.76
		c0.33,0,0.64-0.02,0.94-0.08c0.3-0.05,0.59-0.11,0.87-0.19c0.13-0.02,0.25-0.05,0.38-0.08c0.13-0.02,0.25-0.05,0.38-0.08
		c0.15-0.02,0.31-0.05,0.47-0.08c0.16-0.02,0.33-0.04,0.51-0.04c0.23,0,0.46,0.03,0.7,0.08c0.24,0.05,0.49,0.14,0.74,0.26
		C111.93,54.51,112.03,54.49,112.13,54.47z M111.06,63.43c-0.04-0.01-0.07-0.02-0.09-0.02h-0.04c-0.08-0.05-0.15-0.09-0.23-0.13
		c-0.08-0.04-0.15-0.11-0.23-0.21c-0.76,0.15-1.43,0.44-2.02,0.85c-0.59,0.42-1.17,0.93-1.72,1.53c-0.03,0.1-0.04,0.2-0.06,0.28
		c-0.01,0.09-0.02,0.18-0.02,0.28c0,0.08,0,0.15,0,0.23s0.01,0.15,0.04,0.23c0,0.1,0,0.21,0,0.32s0,0.22,0,0.32c0,0.1,0,0.2,0,0.28
		c0,0.09-0.03,0.18-0.08,0.28c0,0.15-0.01,0.31-0.04,0.47c-0.03,0.16-0.05,0.33-0.08,0.51c-0.03,0.33-0.05,0.67-0.08,1.02
		c-0.03,0.35-0.04,0.72-0.04,1.1c0,0.76,0.1,1.49,0.3,2.19c0.2,0.71,0.6,1.32,1.21,1.85c0.15,0.03,0.3,0.06,0.43,0.11
		c0.14,0.05,0.27,0.11,0.4,0.19c0.2,0.08,0.41,0.15,0.62,0.21c0.21,0.06,0.43,0.09,0.66,0.09c0.1,0,0.21-0.01,0.32-0.04
		c0.11-0.02,0.22-0.05,0.32-0.08c0.78-0.18,1.4-0.57,1.87-1.17c0.47-0.6,0.83-1.25,1.08-1.93c0.1-0.23,0.18-0.45,0.23-0.66
		c0.05-0.21,0.1-0.42,0.15-0.62c0-0.18,0.01-0.36,0.02-0.55c0.01-0.19,0.03-0.37,0.06-0.55c0-0.2,0.01-0.4,0.02-0.59
		s0.03-0.38,0.06-0.59c0-0.1,0-0.2,0-0.3c0-0.1,0-0.2,0-0.3c0-0.55-0.04-1.08-0.11-1.59c-0.08-0.5-0.25-0.96-0.53-1.36
		c-0.2-0.08-0.37-0.18-0.51-0.32c-0.14-0.14-0.27-0.28-0.4-0.43c-0.03,0-0.04-0.01-0.04-0.04c-0.18-0.23-0.37-0.42-0.59-0.59
		c-0.21-0.16-0.49-0.25-0.81-0.25C111.12,63.46,111.09,63.45,111.06,63.43z"/>
	<path class="st3" d="M149.3,54.47c0.1-0.01,0.2-0.02,0.3-0.02c0.08-0.02,0.16-0.04,0.26-0.04c0.1,0,0.2,0,0.3,0
		c0.65,0,1.29,0.11,1.91,0.34c0.62,0.23,1.18,0.53,1.68,0.91c0.05,0,0.1,0.01,0.15,0.02c0.05,0.01,0.1,0.02,0.15,0.02
		c0.05,0.03,0.11,0.04,0.17,0.04c0.06,0,0.13,0.01,0.21,0.04c0.45,0.08,0.9,0.2,1.34,0.38c0.44,0.18,0.76,0.53,0.96,1.06
		c0.96,0.15,1.8,0.59,2.53,1.31c0.73,0.72,1.27,1.52,1.63,2.4c0.65,0.53,1.23,1.19,1.72,1.97c0.49,0.78,0.72,1.62,0.7,2.5
		c0,0.08,0,0.15,0,0.21c0,0.06,0,0.13,0,0.21s-0.01,0.15-0.02,0.21c-0.01,0.06-0.03,0.13-0.06,0.21c0.3,0.56,0.52,1.14,0.64,1.74
		c0.13,0.61,0.19,1.24,0.19,1.89c0,0.25-0.01,0.5-0.02,0.76c-0.01,0.25-0.03,0.49-0.06,0.72c-0.03,0.15-0.04,0.3-0.06,0.45
		c-0.01,0.15-0.03,0.3-0.06,0.45c-0.03,0.1-0.04,0.2-0.06,0.3c-0.01,0.1-0.02,0.2-0.02,0.3c-0.43,0.25-0.69,0.58-0.79,0.98
		c-0.1,0.4-0.16,0.82-0.19,1.25c-0.03,0.23-0.05,0.45-0.08,0.66c-0.03,0.22-0.08,0.42-0.15,0.62c-0.18,0.18-0.37,0.39-0.59,0.63
		c-0.21,0.24-0.43,0.47-0.66,0.7c-0.3,0.33-0.63,0.64-0.96,0.93c-0.34,0.29-0.69,0.54-1.04,0.74c-0.43,0.83-1.04,1.55-1.85,2.14
		c-0.81,0.59-1.65,1.05-2.53,1.38c-0.05,0-0.11,0.01-0.17,0.04c-0.06,0.03-0.13,0.05-0.21,0.08c-0.05-0.02-0.11-0.04-0.17-0.04
		c-0.06,0-0.12,0-0.17,0c-0.23,0-0.44,0.06-0.64,0.17c-0.2,0.11-0.4,0.23-0.6,0.36c-0.03,0-0.04,0.01-0.06,0.04
		c-0.01,0.03-0.03,0.04-0.06,0.04c-0.15,0.1-0.29,0.19-0.42,0.26c-0.13,0.08-0.26,0.13-0.42,0.15c-0.2,0.03-0.4,0.05-0.6,0.08
		c-0.2,0.03-0.4,0.06-0.61,0.11c-0.38,0.05-0.75,0.09-1.12,0.13c-0.37,0.04-0.74,0.08-1.11,0.13c-0.2,0-0.4,0.01-0.59,0.02
		c-0.19,0.01-0.38,0.02-0.59,0.02c-0.18,0-0.35-0.01-0.53-0.02c-0.18-0.01-0.34-0.03-0.49-0.06c-0.18,0-0.35-0.02-0.53-0.06
		c-0.18-0.04-0.35-0.07-0.53-0.09c-0.23-0.18-0.47-0.28-0.72-0.32c-0.25-0.04-0.52-0.07-0.79-0.09c-0.15,0-0.3-0.01-0.45-0.02
		c-0.15-0.01-0.3-0.04-0.45-0.09c-0.2-0.05-0.4-0.1-0.59-0.15c-0.19-0.05-0.38-0.1-0.58-0.15c-0.03-0.02-0.06-0.04-0.09-0.04
		c-0.04,0-0.07,0-0.09,0c-0.66-0.18-1.29-0.38-1.89-0.62c-0.61-0.24-1.08-0.67-1.44-1.31c-1.34-0.28-2.35-0.91-3.04-1.89
		c-0.69-0.98-1.29-2.06-1.8-3.22c-0.05-0.1-0.1-0.21-0.15-0.32c-0.05-0.11-0.1-0.22-0.15-0.32c-0.18-0.38-0.35-0.74-0.51-1.1
		c-0.16-0.35-0.35-0.69-0.55-1.02c-0.23-0.43-0.38-0.85-0.45-1.27c-0.08-0.42-0.11-0.84-0.11-1.27c0-0.35,0.02-0.71,0.06-1.06
		c0.04-0.35,0.08-0.72,0.13-1.1c0.02-0.35,0.06-0.71,0.09-1.06c0.04-0.35,0.06-0.71,0.06-1.06c0-0.08,0-0.16,0-0.25
		c0-0.09-0.01-0.18-0.04-0.28c0-0.1-0.01-0.19-0.02-0.28c-0.01-0.09-0.02-0.17-0.02-0.25c0.13-0.23,0.24-0.45,0.34-0.68
		c0.1-0.23,0.19-0.47,0.26-0.72c0.03-0.02,0.04-0.05,0.04-0.08c0-0.02,0.01-0.05,0.04-0.08c0.18-0.48,0.38-0.93,0.6-1.36
		s0.55-0.79,0.98-1.1c0.15-0.58,0.4-1.07,0.76-1.48c0.35-0.4,0.74-0.79,1.17-1.17c0.13-0.13,0.26-0.24,0.4-0.34s0.27-0.21,0.4-0.34
		c0.4-0.02,0.76-0.17,1.06-0.44c0.3-0.26,0.58-0.56,0.83-0.89c0.08-0.1,0.15-0.19,0.23-0.28c0.08-0.09,0.15-0.18,0.23-0.28
		c0.33-0.33,0.7-0.53,1.12-0.61s0.84-0.13,1.27-0.15c0.48-0.05,0.94-0.13,1.38-0.23c0.44-0.1,0.83-0.35,1.15-0.76
		c0.33,0,0.64-0.02,0.95-0.08c0.3-0.05,0.59-0.11,0.87-0.19c0.13-0.02,0.25-0.05,0.38-0.08c0.13-0.02,0.25-0.05,0.38-0.08
		c0.15-0.02,0.31-0.05,0.47-0.08c0.16-0.02,0.33-0.04,0.51-0.04c0.23,0,0.46,0.03,0.7,0.08c0.24,0.05,0.48,0.14,0.74,0.26
		C149.1,54.51,149.2,54.49,149.3,54.47z M148.23,63.43c-0.04-0.01-0.07-0.02-0.09-0.02h-0.04c-0.08-0.05-0.15-0.09-0.23-0.13
		c-0.08-0.04-0.15-0.11-0.23-0.21c-0.76,0.15-1.43,0.44-2.02,0.85c-0.59,0.42-1.17,0.93-1.72,1.53c-0.03,0.1-0.04,0.2-0.06,0.28
		c-0.01,0.09-0.02,0.18-0.02,0.28c0,0.08,0,0.15,0,0.23s0.01,0.15,0.04,0.23c0,0.1,0,0.21,0,0.32s0,0.22,0,0.32c0,0.1,0,0.2,0,0.28
		c0,0.09-0.03,0.18-0.08,0.28c0,0.15-0.01,0.31-0.04,0.47c-0.03,0.16-0.05,0.33-0.08,0.51c-0.03,0.33-0.05,0.67-0.08,1.02
		c-0.03,0.35-0.04,0.72-0.04,1.1c0,0.76,0.1,1.49,0.3,2.19c0.2,0.71,0.61,1.32,1.21,1.85c0.15,0.03,0.3,0.06,0.43,0.11
		c0.14,0.05,0.27,0.11,0.4,0.19c0.2,0.08,0.41,0.15,0.62,0.21c0.21,0.06,0.43,0.09,0.66,0.09c0.1,0,0.21-0.01,0.32-0.04
		c0.11-0.02,0.22-0.05,0.32-0.08c0.78-0.18,1.4-0.57,1.87-1.17c0.47-0.6,0.83-1.25,1.08-1.93c0.1-0.23,0.18-0.45,0.23-0.66
		c0.05-0.21,0.1-0.42,0.15-0.62c0-0.18,0.01-0.36,0.02-0.55s0.03-0.37,0.06-0.55c0-0.2,0.01-0.4,0.02-0.59
		c0.01-0.19,0.03-0.38,0.06-0.59c0-0.1,0-0.2,0-0.3c0-0.1,0-0.2,0-0.3c0-0.55-0.04-1.08-0.11-1.59c-0.08-0.5-0.25-0.96-0.53-1.36
		c-0.2-0.08-0.37-0.18-0.51-0.32c-0.14-0.14-0.27-0.28-0.4-0.43c-0.03,0-0.04-0.01-0.04-0.04c-0.18-0.23-0.37-0.42-0.59-0.59
		c-0.21-0.16-0.49-0.25-0.81-0.25C148.29,63.46,148.26,63.45,148.23,63.43z"/>
	<path class="st3" d="M192.57,54.68c0.13,0.15,0.2,0.32,0.23,0.49c0.05,0.25,0.13,0.5,0.25,0.74c0.11,0.24,0.22,0.49,0.32,0.74
		c0.15,0.33,0.3,0.66,0.44,0.99c0.14,0.33,0.21,0.7,0.21,1.1c0,0.03,0,0.06,0,0.1s0,0.08,0,0.13c0.25,0.25,0.42,0.54,0.51,0.87
		c0.09,0.33,0.13,0.67,0.13,1.03c0,0.05,0,0.1,0,0.15s0,0.1,0,0.15c0,0.05-0.01,0.1-0.02,0.15s-0.02,0.1-0.02,0.15
		c-0.25,0.18-0.52,0.31-0.79,0.4c-0.28,0.09-0.57,0.12-0.87,0.09c-0.13,0-0.25-0.01-0.38-0.02c-0.13-0.01-0.24-0.03-0.34-0.06
		c-0.25-0.05-0.5-0.12-0.74-0.21c-0.24-0.09-0.47-0.18-0.7-0.28c-0.28,0.15-0.59,0.25-0.93,0.3c-0.34,0.05-0.7,0.08-1.08,0.08
		c-0.13,0-0.26,0-0.4,0s-0.27-0.01-0.4-0.04c-0.1,0-0.21-0.01-0.32-0.02c-0.11-0.01-0.22-0.02-0.32-0.02
		c-0.18-0.02-0.34-0.04-0.49-0.06c-0.15-0.01-0.3-0.02-0.45-0.02c-0.08-0.05-0.14-0.08-0.21-0.09c-0.06-0.01-0.12-0.02-0.17-0.02
		c-0.13,0-0.24,0.04-0.34,0.11c-0.1,0.08-0.2,0.16-0.3,0.26c-0.03,0-0.04,0.01-0.04,0.04c-0.1,0.08-0.2,0.15-0.28,0.23
		c-0.09,0.08-0.2,0.13-0.32,0.15c-0.03,0.05-0.05,0.11-0.08,0.19c-0.03,0.08-0.05,0.14-0.08,0.19c-0.05,0.1-0.09,0.19-0.13,0.26
		s-0.06,0.16-0.06,0.26c0,0.03,0,0.06,0,0.09c0,0.04,0.01,0.07,0.04,0.09c0.02,0.03,0.05,0.06,0.08,0.09
		c0.02,0.04,0.05,0.07,0.08,0.09c0.25,0.43,0.59,0.71,1,0.85c0.42,0.14,0.84,0.26,1.27,0.36c0.48,0.08,0.94,0.21,1.4,0.4
		c0.45,0.19,0.79,0.57,1.02,1.15c0.02,0,0.05,0,0.08,0s0.06-0.01,0.11-0.04c0.02,0,0.05,0,0.08,0c0.02,0,0.05,0,0.08,0
		c0.73,0.03,1.39,0.3,1.99,0.81c0.59,0.52,1.11,1.08,1.57,1.68c0.05,0.1,0.11,0.2,0.19,0.3c0.08,0.1,0.14,0.2,0.19,0.3
		c-0.1,0.13-0.18,0.24-0.23,0.34c-0.05,0.1-0.08,0.2-0.08,0.3c0,0.15,0.05,0.28,0.15,0.38c0.1,0.1,0.23,0.2,0.38,0.3
		c0.03,0.03,0.04,0.04,0.06,0.06s0.03,0.03,0.06,0.06c0.15,0.13,0.3,0.25,0.43,0.38c0.14,0.13,0.21,0.29,0.21,0.49v0.04
		c0.03,0.13,0.04,0.26,0.06,0.4c0.01,0.14,0.02,0.27,0.02,0.4c0.05,0.3,0.09,0.6,0.11,0.91c0.02,0.3,0.04,0.62,0.04,0.95
		c0,0.58-0.08,1.13-0.25,1.66s-0.5,0.97-1,1.32c0,0.03,0,0.06,0,0.09s0,0.08,0,0.13c0,0.96-0.3,1.71-0.91,2.27
		c-0.6,0.55-1.29,1.07-2.04,1.55c-0.05,0.03-0.1,0.06-0.15,0.09c-0.05,0.04-0.1,0.07-0.15,0.09c-0.28,0.18-0.55,0.36-0.83,0.55
		c-0.28,0.19-0.54,0.38-0.79,0.59c-0.08,0.03-0.15,0.05-0.23,0.08c-0.08,0.03-0.15,0.04-0.23,0.04c-0.1,0.03-0.19,0.04-0.26,0.04
		c-0.08,0-0.15,0-0.23,0c-0.08,0-0.16,0-0.25,0c-0.09,0-0.17-0.01-0.25-0.04c-0.1,0-0.2,0-0.28,0c-0.09,0-0.17,0-0.25,0
		c-0.25,0-0.5,0.04-0.76,0.13s-0.48,0.31-0.68,0.66c-0.45,0-0.89,0.03-1.32,0.09c-0.43,0.06-0.86,0.13-1.29,0.21
		c-0.45,0.08-0.9,0.15-1.32,0.21c-0.43,0.06-0.87,0.09-1.32,0.09c-0.03-0.08-0.06-0.13-0.09-0.17c-0.04-0.04-0.07-0.07-0.09-0.09
		c-0.03-0.02-0.06-0.04-0.09-0.06c-0.04-0.01-0.07-0.02-0.09-0.02c-0.08,0-0.15,0.03-0.21,0.08c-0.06,0.05-0.12,0.09-0.17,0.11
		l-0.04,0.04c-0.08,0.05-0.15,0.09-0.23,0.13c-0.08,0.04-0.15,0.06-0.23,0.06h-0.04c-0.1,0-0.2,0.01-0.3,0.02
		c-0.1,0.01-0.21,0.02-0.34,0.02c-0.2,0.03-0.42,0.04-0.64,0.06c-0.23,0.01-0.45,0.02-0.68,0.02c-0.33,0-0.63-0.02-0.91-0.08
		c-0.28-0.05-0.54-0.16-0.79-0.34c-0.08-0.18-0.17-0.36-0.28-0.55s-0.23-0.37-0.36-0.55c-0.2-0.33-0.4-0.67-0.59-1.02
		c-0.19-0.35-0.28-0.74-0.28-1.17c0-0.02,0-0.06,0-0.09c0-0.04,0-0.07,0-0.09c0-0.02,0.01-0.06,0.02-0.09
		c0.01-0.04,0.02-0.07,0.02-0.09c-0.5-0.2-0.83-0.52-0.98-0.96c-0.15-0.44-0.23-0.9-0.23-1.38c0-0.02,0-0.06,0-0.09s0-0.07,0-0.09
		c0-0.1,0-0.2,0-0.3c0-0.1,0.01-0.2,0.04-0.3c0-0.1,0-0.2,0-0.3s0-0.2,0-0.3c0.18-0.25,0.4-0.42,0.68-0.51
		c0.28-0.09,0.55-0.14,0.83-0.17c0.05,0,0.1-0.01,0.15-0.02c0.05-0.01,0.1-0.02,0.15-0.02c0.1,0,0.2-0.01,0.3-0.02
		c0.1-0.01,0.19-0.03,0.26-0.06c0.05,0.03,0.11,0.05,0.17,0.08c0.06,0.03,0.12,0.04,0.17,0.04c0.15,0.08,0.3,0.15,0.45,0.23
		s0.28,0.19,0.38,0.34c0.3-0.15,0.64-0.25,1-0.28c0.37-0.04,0.74-0.06,1.12-0.06c0.2,0,0.4,0.01,0.59,0.02
		c0.19,0.01,0.37,0.02,0.55,0.02c0.2,0,0.4,0.01,0.59,0.02c0.19,0.01,0.37,0.02,0.55,0.02c0.05,0,0.1,0,0.15,0s0.1-0.01,0.15-0.04
		c0.02,0,0.06,0,0.11,0s0.1,0,0.15,0c0.2,0.25,0.43,0.35,0.68,0.28c0.25-0.06,0.5-0.16,0.76-0.28c0.02-0.02,0.06-0.04,0.09-0.06
		c0.04-0.01,0.07-0.03,0.09-0.06c0.1-0.05,0.2-0.09,0.28-0.11c0.09-0.02,0.18-0.05,0.28-0.08c0.1-0.08,0.2-0.18,0.28-0.3
		c0.09-0.13,0.16-0.25,0.21-0.38c0-0.05,0.01-0.1,0.02-0.15c0.01-0.05,0.02-0.1,0.02-0.15c0-0.08-0.01-0.15-0.04-0.23
		s-0.06-0.15-0.11-0.23c-0.2-0.23-0.43-0.43-0.68-0.6c-0.25-0.18-0.52-0.35-0.79-0.53c-0.05-0.02-0.09-0.05-0.13-0.08
		s-0.08-0.05-0.13-0.08c-0.23-0.13-0.45-0.26-0.66-0.42c-0.21-0.15-0.42-0.33-0.62-0.53c-0.03,0-0.05,0-0.08,0s-0.04,0-0.06,0
		s-0.03,0-0.06,0c-0.45,0-0.85-0.12-1.19-0.36c-0.34-0.24-0.67-0.51-1-0.81c0-0.02-0.03-0.05-0.08-0.08
		c-0.3-0.28-0.61-0.54-0.93-0.79s-0.67-0.4-1.08-0.46c-0.4-0.3-0.72-0.66-0.96-1.06c-0.24-0.4-0.45-0.81-0.62-1.21
		c-0.03-0.08-0.05-0.14-0.08-0.19c-0.03-0.05-0.05-0.1-0.08-0.15c-0.1-0.2-0.2-0.4-0.28-0.61s-0.18-0.39-0.28-0.57
		c-0.03-0.08-0.06-0.15-0.09-0.21s-0.06-0.13-0.06-0.21c-0.03-0.08-0.04-0.15-0.06-0.21c-0.01-0.06-0.02-0.13-0.02-0.21
		c0-0.25,0.05-0.5,0.15-0.74c0.1-0.24,0.2-0.47,0.3-0.7h0.04v-0.04c0.1-0.23,0.2-0.46,0.3-0.7c0.1-0.24,0.15-0.49,0.15-0.74
		c0-0.05,0-0.09,0-0.13c0-0.04,0-0.08,0-0.13c0-0.05-0.01-0.09-0.02-0.13s-0.03-0.08-0.06-0.13c0.28-1.34,0.95-2.53,2.02-3.58
		c1.07-1.05,2.25-1.77,3.53-2.18c0.15,0.08,0.3,0.13,0.43,0.15c0.14,0.03,0.26,0.04,0.36,0.04c0.2,0,0.4-0.02,0.6-0.08
		c0.2-0.05,0.4-0.11,0.6-0.19c0.08-0.02,0.15-0.04,0.23-0.06c0.08-0.01,0.15-0.03,0.23-0.06c0.4-0.48,0.91-0.76,1.51-0.85
		c0.61-0.09,1.22-0.14,1.85-0.17c0.08-0.02,0.16-0.04,0.25-0.04c0.09,0,0.17,0,0.25,0c0.2,0,0.4,0.04,0.6,0.13
		c0.2,0.09,0.39,0.2,0.57,0.32c0.33-0.38,0.71-0.63,1.15-0.76c0.44-0.13,0.9-0.19,1.38-0.19c0.23,0,0.46,0.01,0.7,0.02
		s0.47,0.03,0.7,0.06c0.15,0.03,0.3,0.04,0.45,0.06c0.15,0.01,0.29,0.02,0.42,0.02C192.31,54.42,192.44,54.53,192.57,54.68z"/>
	<rect x="104.75" y="63.07" class="st3" width="10.64" height="13.9"/>
	<rect x="140.74" y="61.22" class="st3" width="12.72" height="16.27"/>
	<path class="st3" d="M220.14,54.38c0.33-0.1,0.67-0.16,1.02-0.19c0.08,0,0.15,0,0.23,0s0.15,0,0.23,0c0.43,0,0.82,0.08,1.17,0.23
		c0.35,0.15,0.61,0.4,0.76,0.76c-0.03,0.13-0.05,0.25-0.08,0.38c-0.03,0.13-0.04,0.25-0.04,0.38c0,0.25,0.03,0.51,0.08,0.78
		c0.05,0.27,0.11,0.52,0.19,0.78c0.05,0.28,0.1,0.55,0.15,0.81c0.05,0.27,0.08,0.52,0.08,0.78c0,0.15-0.01,0.3-0.04,0.44
		c-0.03,0.14-0.06,0.27-0.11,0.4c0,0.05,0.01,0.11,0.02,0.19s0.02,0.15,0.02,0.23c0.03,0.08,0.04,0.15,0.04,0.23
		c0,0.08,0,0.17,0,0.27c0.02,0.08,0.04,0.15,0.04,0.23s0,0.15,0,0.23c0,0.2-0.03,0.39-0.08,0.57c-0.05,0.18-0.16,0.33-0.34,0.45
		c-0.48,0.08-0.94,0.13-1.38,0.15c-0.44,0.03-0.88,0.04-1.3,0.04c-0.15,0-0.3,0-0.45,0s-0.3,0-0.45,0c-0.08,0-0.15,0-0.23,0
		c-0.08,0-0.15-0.01-0.23-0.04c-0.23,0-0.45,0-0.68,0c-0.23,0-0.45,0-0.68,0c-0.08,0-0.15,0-0.23,0c-0.08,0-0.15,0-0.23,0
		c-0.33,0.18-0.59,0.37-0.77,0.59c-0.19,0.22-0.37,0.49-0.55,0.82c0,0.03,0,0.05,0,0.08c0,0.03,0,0.04,0,0.06s0,0.03,0,0.06
		c0,0.45,0.15,0.76,0.45,0.91c0.3,0.15,0.64,0.28,1.02,0.38c0.03,0,0.06,0,0.09,0s0.07,0.01,0.09,0.04
		c0.18,0.03,0.34,0.06,0.49,0.09c0.15,0.04,0.29,0.09,0.42,0.17c0.3-0.18,0.67-0.3,1.11-0.38c0.44-0.08,0.9-0.11,1.38-0.11
		c0.33,0,0.65,0.01,0.96,0.04c0.32,0.03,0.61,0.06,0.89,0.11c0.18,0.15,0.3,0.31,0.36,0.47c0.06,0.16,0.09,0.35,0.09,0.55
		c0,0.18-0.03,0.36-0.08,0.55c-0.05,0.19-0.11,0.39-0.19,0.59c0,0.2,0.02,0.41,0.06,0.63c0.04,0.21,0.08,0.42,0.13,0.63
		c0.05,0.2,0.09,0.4,0.13,0.61c0.04,0.2,0.06,0.4,0.06,0.61c0,0.18-0.03,0.36-0.08,0.55c-0.05,0.19-0.14,0.39-0.26,0.59
		c-0.13,0.1-0.26,0.17-0.4,0.21c-0.14,0.04-0.28,0.06-0.43,0.06c-0.13,0-0.26-0.01-0.4-0.04c-0.14-0.02-0.27-0.06-0.4-0.11
		c-0.15-0.02-0.3-0.05-0.43-0.08c-0.14-0.02-0.27-0.04-0.4-0.04c-0.15,0-0.3,0.03-0.45,0.08s-0.3,0.14-0.45,0.27
		c-0.08-0.03-0.15-0.04-0.23-0.06c-0.08-0.01-0.15-0.03-0.23-0.06c-0.08,0-0.15-0.01-0.21-0.02c-0.06-0.01-0.13-0.03-0.21-0.06
		c-0.15-0.03-0.3-0.04-0.45-0.06c-0.15-0.01-0.3-0.02-0.45-0.02c-0.25,0-0.5,0.04-0.74,0.11s-0.46,0.21-0.66,0.42
		c-0.03,0.08-0.04,0.15-0.06,0.23c-0.01,0.08-0.02,0.16-0.02,0.27c0,0.03-0.01,0.05-0.02,0.08s-0.02,0.05-0.02,0.08
		c0,0.15-0.03,0.31-0.09,0.47c-0.06,0.16-0.17,0.31-0.32,0.44c0,0.05,0,0.1,0,0.13c0,0.04,0,0.08,0,0.13
		c0.02,0.43,0.14,0.84,0.36,1.23c0.21,0.39,0.55,0.65,1,0.78c0.1,0.03,0.2,0.04,0.28,0.06c0.09,0.01,0.18,0.02,0.28,0.02
		c0.08,0,0.16,0,0.25,0c0.09,0,0.18,0,0.28,0c0.3,0,0.6-0.01,0.91-0.04c0.3-0.02,0.59-0.06,0.87-0.11c0.3-0.03,0.6-0.05,0.89-0.08
		c0.29-0.02,0.57-0.04,0.85-0.04c0.18,0,0.35,0.01,0.53,0.02c0.18,0.01,0.35,0.03,0.53,0.06c0.18,0.05,0.35,0.1,0.53,0.15
		c0.18,0.05,0.35,0.11,0.53,0.19c0.2,0.15,0.33,0.31,0.38,0.47c0.05,0.16,0.08,0.35,0.08,0.55c0,0.13-0.01,0.25-0.04,0.38
		c-0.03,0.13-0.04,0.24-0.04,0.34c-0.03,0.13-0.05,0.25-0.08,0.36c-0.03,0.11-0.04,0.23-0.04,0.36c0,0.1,0.01,0.21,0.04,0.32
		c0.02,0.11,0.08,0.22,0.15,0.32c0.05,0.15,0.09,0.3,0.11,0.44c0.02,0.14,0.04,0.27,0.04,0.4c0,0.2-0.02,0.4-0.06,0.59
		c-0.04,0.19-0.08,0.37-0.13,0.55c-0.03,0.08-0.05,0.15-0.08,0.21c-0.03,0.06-0.04,0.12-0.04,0.17c-0.03,0.13-0.05,0.25-0.08,0.38
		c-0.03,0.13-0.04,0.25-0.04,0.38c0,0.15,0.02,0.3,0.06,0.46c0.04,0.15,0.09,0.3,0.17,0.45c0,0.03,0,0.05,0,0.08
		c0,0.3-0.08,0.58-0.25,0.83c-0.16,0.25-0.38,0.47-0.66,0.64c-1.54,0.08-3.03,0.11-4.48,0.11s-2.9,0-4.37,0c-0.03,0-0.05,0-0.08,0
		s-0.05,0-0.08,0c-0.55-0.03-1.11-0.04-1.66-0.04c-0.55,0-1.11,0-1.66,0c-0.86,0-1.73,0.01-2.61,0.02
		c-0.88,0.01-1.76,0.04-2.65,0.09c-0.33-0.33-0.6-0.71-0.81-1.16c-0.21-0.44-0.32-0.9-0.32-1.38c0-0.15,0.01-0.3,0.04-0.45
		c0.02-0.15,0.06-0.3,0.11-0.46c0.05-0.1,0.09-0.19,0.13-0.27c0.04-0.08,0.06-0.15,0.06-0.23c0-0.08-0.01-0.15-0.04-0.23
		c-0.03-0.08-0.05-0.15-0.08-0.23c0-0.02-0.01-0.06-0.04-0.11c-0.05-0.13-0.09-0.26-0.11-0.4s-0.04-0.27-0.04-0.4
		c0-0.02,0-0.05,0-0.08c0-0.02,0-0.05,0-0.08c0.08-0.25,0.13-0.5,0.17-0.74c0.04-0.24,0.07-0.49,0.09-0.74
		c0.02-0.23,0.04-0.46,0.06-0.7c0.01-0.24,0.02-0.49,0.02-0.74c0-0.35-0.01-0.71-0.04-1.08s-0.05-0.73-0.08-1.08
		c-0.03-0.45-0.05-0.91-0.08-1.36c-0.03-0.45-0.04-0.91-0.04-1.36c0-0.35,0.01-0.7,0.04-1.04c0.02-0.34,0.06-0.69,0.11-1.04
		c-0.05-0.35-0.09-0.73-0.11-1.14c-0.03-0.4-0.05-0.81-0.08-1.21c0-0.08,0-0.16,0-0.25c0-0.09,0-0.17,0-0.25
		c0-0.53,0.03-1.05,0.08-1.57c0.05-0.52,0.14-1,0.26-1.46c-0.18-0.28-0.31-0.6-0.4-0.97c-0.09-0.37-0.13-0.75-0.13-1.16
		c0-0.05,0-0.1,0-0.15s0-0.11,0-0.19c0.02-0.33,0.08-0.64,0.17-0.95c0.09-0.3,0.18-0.58,0.28-0.83c-0.2-0.46-0.36-0.91-0.47-1.36
		c-0.11-0.46-0.17-0.92-0.17-1.4c0-0.2,0.01-0.42,0.04-0.64c0.02-0.23,0.08-0.45,0.15-0.68c0.18-0.23,0.39-0.38,0.64-0.45
		c0.25-0.08,0.52-0.11,0.79-0.11c0.08,0,0.16,0,0.25,0c0.09,0,0.18,0.01,0.28,0.04c0.1,0,0.2,0.01,0.28,0.02
		c0.09,0.01,0.17,0.03,0.25,0.06c0.13,0.05,0.26,0.09,0.4,0.11c0.14,0.03,0.27,0.04,0.4,0.04c0.2,0,0.4-0.02,0.6-0.06
		c0.2-0.04,0.4-0.08,0.61-0.13c0.2-0.02,0.4-0.06,0.6-0.09c0.2-0.04,0.42-0.06,0.64-0.06c0.13,0,0.26,0.01,0.4,0.04
		c0.14,0.03,0.28,0.06,0.43,0.11c0.08,0.03,0.14,0.05,0.21,0.08c0.06,0.03,0.13,0.06,0.21,0.11c0.2-0.08,0.4-0.14,0.59-0.19
		c0.19-0.05,0.38-0.1,0.59-0.15c0.18-0.02,0.37-0.04,0.57-0.06c0.2-0.01,0.39-0.02,0.57-0.02c0.4,0,0.81,0.02,1.21,0.06
		c0.4,0.04,0.81,0.09,1.21,0.17c0.02,0,0.04,0,0.06,0s0.03,0,0.06,0c0.38,0.05,0.76,0.1,1.15,0.15c0.39,0.05,0.77,0.08,1.15,0.08
		C219.54,54.61,219.82,54.48,220.14,54.38z"/>
	<g>
		<polygon class="st4" points="170.92,57.74 124.09,57.74 90.02,84.47 204.99,84.47 		"/>
		<path class="st5" d="M170.38,58.63h-45.75c-0.46,0-0.75-0.53-0.54-0.97l12.1-25.06c0.11-0.22,0.31-0.35,0.54-0.35h21.54
			c0.23,0,0.43,0.14,0.54,0.35l12.1,25.06C171.13,58.1,170.84,58.63,170.38,58.63z"/>
	</g>
	<g>
		<path class="st6" d="M243.51,59.87c1.56,1.91,5.34,7.86,5.42,8.19c0.36-0.25,0.98-0.76,0.98-0.76s-4.57-7.92-5.82-8.78
			C242.4,58.36,243.17,59.46,243.51,59.87z"/>
		<path class="st7" d="M260.74,84.47h-13.48c-0.27,0-0.48-0.21-0.5-0.47l-0.95-18.18c-0.01-0.28,0.21-0.52,0.5-0.52h15.37
			c0.29,0,0.51,0.24,0.5,0.52L261.24,84C261.22,84.26,261,84.47,260.74,84.47z"/>
		<path class="st7" d="M264.76,69.93h-4.81c-1,0-1.82,0.81-1.82,1.82v6.12c0,1,0.81,1.82,1.82,1.82h4.81c1,0,1.82-0.81,1.82-1.82
			v-6.12C266.58,70.74,265.76,69.93,264.76,69.93z M265.31,77.18c0,0.61-0.5,1.11-1.11,1.11h-3.68c-0.61,0-1.11-0.5-1.11-1.11v-4.6
			c0-0.61,0.5-1.11,1.11-1.11h3.68c0.61,0,1.11,0.5,1.11,1.11V77.18z"/>
	</g>
	<g>
		<circle class="st8" cx="7.72" cy="68.68" r="1.17"/>
		<circle class="st8" cx="9.17" cy="69.52" r="1.17"/>
		<circle class="st8" cx="10.74" cy="69.33" r="1.17"/>
		<circle class="st8" cx="12.32" cy="70.12" r="1.17"/>
		<circle class="st8" cx="14.49" cy="70.56" r="1.17"/>
		<circle class="st8" cx="15.65" cy="71.39" r="1.17"/>
		<circle class="st8" cx="17.32" cy="70.85" r="1.17"/>
		<circle class="st8" cx="19.06" cy="71.8" r="1.17"/>
		<circle class="st8" cx="20.78" cy="72.08" r="1.17"/>
		<circle class="st8" cx="22.09" cy="72.8" r="1.17"/>
		<circle class="st8" cx="23.64" cy="72.49" r="1.17"/>
		<circle class="st8" cx="25.28" cy="73.16" r="1.17"/>
		<circle class="st8" cx="27.06" cy="73.18" r="1.17"/>
		<circle class="st8" cx="28.62" cy="73.8" r="1.17"/>
		<circle class="st8" cx="30.15" cy="73.4" r="1.17"/>
		<circle class="st8" cx="31.82" cy="73.96" r="1.17"/>
		<circle class="st8" cx="36.77" cy="74.41" r="1.17"/>
		<circle class="st8" cx="35.19" cy="74.18" r="1.17"/>
		<circle class="st8" cx="33.34" cy="74.15" r="1.17"/>
		<circle class="st8" cx="37.54" cy="72.59" r="1.17"/>
		<circle class="st8" cx="36.44" cy="71.47" r="1.17"/>
		<circle class="st8" cx="36.1" cy="69.73" r="1.17"/>
		<g>
			<defs>
				<path id="SVGID_1_" d="M52.66,74.5c2.14,0.68,4.67,2.47,5.42,5.23l0.3,2.13c0.11,0.39-0.16,0.79-0.53,0.78L4.22,80.82
					l1.04-10.67c0.02-1.14,0.98-1.98,1.98-1.72l10.84,2.9c1.72,0.43,3.46,0.78,5.21,1.06l12.96,2.07c0.68,0.17,1.26-0.59,0.98-1.31
					l-1.54-4.27c-0.11-0.3,0.15-0.6,0.42-0.49"/>
			</defs>
			<clipPath id="SVGID_2_">
				<use xlink:href="#SVGID_1_"  style="overflow:visible;"/>
			</clipPath>
			<g class="st9">
				<rect x="-10.07" y="63.13" class="st10" width="42.38" height="30.93"/>
				
					<rect x="7.29" y="63.13" transform="matrix(-1 -1.224647e-16 1.224647e-16 -1 14.9885 157.2031)" class="st11" width="0.4" height="30.93"/>
				
					<rect x="8.69" y="63.13" transform="matrix(-1 -1.224647e-16 1.224647e-16 -1 17.7868 157.2031)" class="st11" width="0.4" height="30.93"/>
				
					<rect x="23.55" y="63.13" transform="matrix(-1 -1.224647e-16 1.224647e-16 -1 47.4927 157.2031)" class="st11" width="0.4" height="30.93"/>
				
					<rect x="24.95" y="63.13" transform="matrix(-1 -1.224647e-16 1.224647e-16 -1 50.291 157.2031)" class="st11" width="0.4" height="30.93"/>
				
					<rect x="-8.09" y="63.13" transform="matrix(-1 -1.224647e-16 1.224647e-16 -1 -15.7806 157.2031)" class="st11" width="0.4" height="30.93"/>
				<rect x="-2.95" y="63.13" class="st12" width="7.12" height="30.93"/>
				<rect x="12.01" y="63.13" class="st12" width="7.12" height="30.93"/>
				
					<rect x="10.7" y="56.44" transform="matrix(-1.836970e-16 1 -1 -1.836970e-16 88.752 66.5509)" class="st13" width="0.8" height="42.41"/>
				
					<rect x="10.92" y="60.34" transform="matrix(6.123234e-17 -1 1 6.123234e-17 -70.4111 92.6484)" class="st11" width="0.4" height="42.38"/>
				
					<rect x="10.92" y="61.74" transform="matrix(6.123234e-17 -1 1 6.123234e-17 -71.8103 94.0476)" class="st11" width="0.4" height="42.38"/>
				
					<rect x="10.92" y="44.49" transform="matrix(6.123234e-17 -1 1 6.123234e-17 -54.5641 76.8013)" class="st11" width="0.4" height="42.38"/>
				
					<rect x="10.92" y="45.89" transform="matrix(6.123234e-17 -1 1 6.123234e-17 -55.9632 78.2005)" class="st11" width="0.4" height="42.38"/>
				
					<rect x="10.7" y="58.34" transform="matrix(-1.836970e-16 1 -1 -1.836970e-16 90.6506 68.4495)" class="st14" width="0.8" height="42.41"/>
				
					<rect x="7.54" y="52.48" transform="matrix(-1.836970e-16 1 -1 -1.836970e-16 84.7911 62.59)" class="st14" width="7.12" height="42.41"/>
				
					<rect x="7.54" y="66.86" transform="matrix(-1.836970e-16 1 -1 -1.836970e-16 99.1699 76.9688)" class="st14" width="7.12" height="42.41"/>
				
					<rect x="10.7" y="52.66" transform="matrix(-1.836970e-16 1 -1 -1.836970e-16 84.9718 62.7707)" class="st15" width="0.8" height="42.41"/>
				
					<rect x="10.7" y="67.07" transform="matrix(-1.836970e-16 1 -1 -1.836970e-16 99.3759 77.1748)" class="st15" width="0.8" height="42.41"/>
				
					<rect x="0.21" y="63.13" transform="matrix(-1 -1.224647e-16 1.224647e-16 -1 1.2271 157.2031)" class="st15" width="0.8" height="30.93"/>
				
					<rect x="15.18" y="63.13" transform="matrix(-1 -1.224647e-16 1.224647e-16 -1 31.1505 157.2031)" class="st15" width="0.8" height="30.93"/>
				<rect x="19.14" y="63.13" class="st13" width="0.8" height="30.93"/>
				<rect x="11.21" y="63.13" class="st13" width="0.8" height="30.93"/>
			</g>
			<g class="st9">
				<rect x="32.34" y="63.13" class="st10" width="42.38" height="30.93"/>
				
					<rect x="49.7" y="63.13" transform="matrix(-1 -1.224647e-16 1.224647e-16 -1 99.8 157.2031)" class="st11" width="0.4" height="30.93"/>
				
					<rect x="51.1" y="63.13" transform="matrix(-1 -1.224647e-16 1.224647e-16 -1 102.5983 157.2031)" class="st11" width="0.4" height="30.93"/>
				
					<rect x="65.95" y="63.13" transform="matrix(-1 -1.224647e-16 1.224647e-16 -1 132.3042 157.2031)" class="st11" width="0.4" height="30.93"/>
				
					<rect x="67.35" y="63.13" transform="matrix(-1 -1.224647e-16 1.224647e-16 -1 135.1025 157.2031)" class="st11" width="0.4" height="30.93"/>
				
					<rect x="34.32" y="63.13" transform="matrix(-1 -1.224647e-16 1.224647e-16 -1 69.0308 157.2031)" class="st11" width="0.4" height="30.93"/>
				<rect x="39.46" y="63.13" class="st12" width="7.12" height="30.93"/>
				<rect x="54.42" y="63.13" class="st12" width="7.12" height="30.93"/>
				
					<rect x="53.11" y="56.44" transform="matrix(-1.836970e-16 1 -1 -1.836970e-16 131.1577 24.1451)" class="st13" width="0.8" height="42.41"/>
				
					<rect x="53.32" y="60.34" transform="matrix(6.123234e-17 -1 1 6.123234e-17 -28.0054 135.0541)" class="st11" width="0.4" height="42.38"/>
				
					<rect x="53.32" y="61.74" transform="matrix(6.123234e-17 -1 1 6.123234e-17 -29.4045 136.4533)" class="st11" width="0.4" height="42.38"/>
				
					<rect x="53.32" y="44.49" transform="matrix(6.123234e-17 -1 1 6.123234e-17 -12.1583 119.2071)" class="st11" width="0.4" height="42.38"/>
				
					<rect x="53.32" y="45.89" transform="matrix(6.123234e-17 -1 1 6.123234e-17 -13.5575 120.6062)" class="st11" width="0.4" height="42.38"/>
				
					<rect x="53.11" y="58.34" transform="matrix(-1.836970e-16 1 -1 -1.836970e-16 133.0563 26.0437)" class="st14" width="0.8" height="42.41"/>
				
					<rect x="49.95" y="52.48" transform="matrix(-1.836970e-16 1 -1 -1.836970e-16 127.1968 20.1842)" class="st14" width="7.12" height="42.41"/>
				
					<rect x="49.95" y="66.86" transform="matrix(-1.836970e-16 1 -1 -1.836970e-16 141.5756 34.563)" class="st14" width="7.12" height="42.41"/>
				
					<rect x="53.11" y="52.66" transform="matrix(-1.836970e-16 1 -1 -1.836970e-16 127.3775 20.3649)" class="st15" width="0.8" height="42.41"/>
				
					<rect x="53.11" y="67.07" transform="matrix(-1.836970e-16 1 -1 -1.836970e-16 141.7816 34.7691)" class="st15" width="0.8" height="42.41"/>
				
					<rect x="42.62" y="63.13" transform="matrix(-1 -1.224647e-16 1.224647e-16 -1 86.0386 157.2031)" class="st15" width="0.8" height="30.93"/>
				
					<rect x="57.58" y="63.13" transform="matrix(-1 -1.224647e-16 1.224647e-16 -1 115.962 157.2031)" class="st15" width="0.8" height="30.93"/>
				<rect x="61.54" y="63.13" class="st13" width="0.8" height="30.93"/>
				<rect x="53.62" y="63.13" class="st13" width="0.8" height="30.93"/>
			</g>
		</g>
		<path class="st16" d="M30.63,81.13l-0.1-0.02c-1.19-0.22-2.39-0.34-3.59-0.36L3.76,79.51c-0.28,0-0.52,0.22-0.52,0.51l-0.07,4.43
			c0,0.28,0.22,0.52,0.51,0.52l24.5,0.39c0.28,0,0.52-0.22,0.52-0.51l0.01-0.9l1.55,0.48c2.12,0.66,4.34,0.95,6.56,0.85l21.71-0.98
			c0.27-0.01,0.49-0.23,0.49-0.51l0.03-2.03c0-0.28-0.22-0.52-0.51-0.52l-22.16,0.37C34.45,81.65,32.53,81.49,30.63,81.13z"/>
		<path class="st16" d="M36.33,75.13c-0.31,0-0.66-0.04-1.02-0.09c-0.2-0.02-0.42-0.05-0.64-0.07c-8.36-0.61-21.64-4.02-26.64-5.31
			c-0.88-0.22-1.5-0.38-1.79-0.45c-0.29-0.07-0.48-0.36-0.41-0.65c0.07-0.29,0.36-0.47,0.65-0.41c0.3,0.07,0.93,0.23,1.82,0.46
			c4.97,1.28,18.18,4.67,26.46,5.28c0.25,0.02,0.47,0.05,0.68,0.08c0.43,0.05,1.08,0.13,1.21,0.04l0,0c0,0,0.1-0.18-0.12-0.95
			c-0.45-1.24-1.03-2.97-1.38-4.04c-0.09-0.29,0.06-0.59,0.35-0.69c0.28-0.09,0.59,0.06,0.69,0.35c0.29,0.88,0.89,2.68,1.38,4.04
			c0.19,0.69,0.34,1.49-0.1,2C37.2,75.03,36.8,75.13,36.33,75.13z"/>
	</g>
</g>
</svg>
